<svg width="35" height="38" viewBox="0 0 35 38" fill="none" xmlns="http://www.w3.org/2000/svg">
<path d="M0 17.1315C0 26.5929 14.122 37.9151 17.1721 37.9995C20.2222 38.084 35 26.5929 35 17.1315C35 7.67001 27.165 0 17.5 0C7.83502 0 0 7.67001 0 17.1315Z" fill="#DAA520" fill-opacity="0.2"/>
<g clip-path="url(#clip0_547_21)">
<path d="M2.00095 17.3333C2.00095 16.9653 2.29961 16.6667 2.66761 16.6667H8.20895C8.52095 16.6667 8.79028 16.452 8.84895 16.156C9.04895 15.1573 9.42361 14.2307 9.91028 13.3813L4.33295 10.1347C4.01428 9.94933 3.90628 9.54267 4.09161 9.22267C4.27695 8.90533 4.68495 8.79467 5.00361 8.98267L10.6663 12.2787C11.3369 11.4213 12.1449 10.6907 13.0649 10.1133L9.70228 4.33467C9.51695 4.01733 9.62495 3.60933 9.94361 3.42267C10.2596 3.236 10.6689 3.34533 10.8556 3.66533L14.2463 9.49467C15.2089 9.068 16.2476 8.80533 17.3356 8.72533V2.66667C17.3356 2.29867 17.6343 2 18.0023 2C18.3703 2 18.6689 2.29867 18.6689 2.66667V8.72533C19.7636 8.80533 20.8063 9.07067 21.7743 9.50133L25.1689 3.66533C25.3543 3.344 25.7623 3.23867 26.0809 3.42267C26.3996 3.60933 26.5076 4.016 26.3236 4.33467L22.9569 10.1253C23.8729 10.7027 24.6769 11.432 25.3449 12.288L31.0223 8.98267C31.3369 8.79733 31.7476 8.904 31.9343 9.224C32.1209 9.544 32.0129 9.95067 31.6943 10.1373L26.0996 13.3947C26.5836 14.2413 26.9556 15.164 27.1543 16.1587C27.2129 16.4547 27.4823 16.6693 27.7943 16.6693H33.3356C33.7036 16.6693 34.0023 16.968 34.0023 17.336C34.0023 17.704 33.7036 18.0027 33.3356 18.0027H27.7943C26.8489 18.0027 26.0303 17.3373 25.8463 16.42C25.1009 12.7013 21.8036 10.0027 18.0023 10.0027C14.2009 10.0027 10.9036 12.7013 10.1583 16.4213C9.97428 17.3373 9.15561 18.0027 8.21028 18.0027H2.66761C2.29961 18.0027 2.00095 17.704 2.00095 17.336V17.3333ZM32.8996 31.8053C32.2543 32.36 31.4183 32.6667 30.5463 32.6667C28.9889 32.6667 27.4596 31.7067 26.9889 30.4347C26.7956 29.9107 25.9316 29.9107 25.7383 30.4347C25.2676 31.7067 23.7396 32.6667 22.1823 32.6667C20.6249 32.6667 19.0956 31.7067 18.6249 30.4347C18.4316 29.9107 17.5676 29.9107 17.3743 30.4347C16.9036 31.7067 15.3743 32.6667 13.8183 32.6667C12.2623 32.6667 10.7316 31.7067 10.2623 30.436C10.1649 30.1747 9.91561 30 9.63695 30C9.35828 30 9.10895 30.1733 9.01161 30.4347C8.54095 31.7067 7.01161 32.6667 5.45561 32.6667C4.58361 32.6667 3.74761 32.3613 3.10095 31.8053C2.82361 31.5653 2.40228 31.5973 2.16095 31.876C1.92095 32.156 1.95295 32.576 2.23295 32.816C3.12095 33.5787 4.26495 34 5.45561 34C7.10761 34 8.70095 33.208 9.63695 32.008C10.5743 33.208 12.1649 34 13.8183 34C15.4716 34 17.0636 33.208 17.9996 32.008C18.9369 33.208 20.5289 34 22.1823 34C23.8356 34 25.4263 33.208 26.3636 32.008C27.3009 33.208 28.8929 34 30.5463 34C31.7369 34 32.8809 33.58 33.7689 32.816C34.0476 32.576 34.0796 32.156 33.8396 31.876C33.6009 31.5973 33.1809 31.5667 32.8996 31.8053ZM32.8996 23.8053C32.2543 24.36 31.4183 24.6667 30.5463 24.6667C28.9889 24.6667 27.4596 23.7067 26.9889 22.4347C26.7956 21.9107 25.9316 21.9107 25.7383 22.4347C25.2676 23.7067 23.7396 24.6667 22.1823 24.6667C20.6249 24.6667 19.0956 23.7067 18.6249 22.4347C18.4316 21.9107 17.5676 21.9107 17.3743 22.4347C16.9036 23.7067 15.3743 24.6667 13.8183 24.6667C12.2623 24.6667 10.7316 23.7067 10.2623 22.436C10.1649 22.1747 9.91561 22 9.63695 22C9.35828 22 9.10895 22.1733 9.01161 22.4347C8.54095 23.7067 7.01161 24.6667 5.45561 24.6667C4.58361 24.6667 3.74761 24.3613 3.10095 23.8053C2.82361 23.5667 2.40228 23.596 2.16095 23.876C1.92095 24.156 1.95295 24.576 2.23295 24.816C3.12095 25.5787 4.26495 26 5.45561 26C7.10761 26 8.70095 25.208 9.63695 24.008C10.5743 25.208 12.1649 26 13.8183 26C15.4716 26 17.0636 25.208 17.9996 24.008C18.9369 25.208 20.5289 26 22.1823 26C23.8356 26 25.4263 25.208 26.3636 24.008C27.3009 25.208 28.8929 26 30.5463 26C31.7369 26 32.8809 25.58 33.7689 24.816C34.0476 24.576 34.0796 24.156 33.8396 23.876C33.6009 23.5973 33.1809 23.568 32.8996 23.8053Z" fill="#915A17"/>
</g>
<defs>
<clipPath id="clip0_547_21">
<rect width="32" height="32" fill="white" transform="translate(2 2)"/>
</clipPath>
</defs>
</svg>
