<svg width="35" height="38" viewBox="0 0 35 38" fill="none" xmlns="http://www.w3.org/2000/svg">
<path d="M0 17.1315C0 26.5929 14.122 37.9151 17.1721 37.9995C20.2222 38.084 35 26.5929 35 17.1315C35 7.67001 27.165 0 17.5 0C7.83502 0 0 7.67001 0 17.1315Z" fill="#DAA520" fill-opacity="0.2"/>
<g clip-path="url(#clip0_547_20)">
<path d="M26.348 14.1027C25.7507 13.856 25.0667 13.9893 24.608 14.4493L22.5853 16.472C22.2133 16.844 22 17.36 22 17.8867V21.0587L17.528 25.5307C17.268 25.7907 17.268 26.2133 17.528 26.4733C17.6587 26.604 17.8293 26.668 18 26.668C18.1707 26.668 18.3413 26.6027 18.472 26.4733L22.944 22.0013H26.116C26.6493 22.0013 27.152 21.7933 27.5307 21.416L29.5533 19.3933C30.012 18.9347 30.148 18.2533 29.9 17.6533C29.652 17.0533 29.072 16.668 28.4253 16.668H27.3373V15.58C27.3373 14.932 26.9507 14.3533 26.352 14.1053L26.348 14.1027ZM28.4227 18C28.576 18 28.6413 18.1013 28.6667 18.1627C28.692 18.2227 28.7173 18.3413 28.6093 18.4493L26.5867 20.472C26.4627 20.596 26.2907 20.6667 26.1147 20.6667H23.3333V17.8853C23.3333 17.7093 23.404 17.5373 23.528 17.4133L25.5507 15.3907C25.6587 15.2813 25.7773 15.3093 25.8373 15.3333C25.8987 15.36 26 15.4227 26 15.5773V17.332C26 17.7 26.2987 17.9987 26.6667 17.9987H28.4213L28.4227 18ZM34.0013 10.6667V28C34.0013 31.308 31.3093 34 28.0013 34H26.668C26.3 34 26.0013 33.7013 26.0013 33.3333C26.0013 32.9653 26.3 32.6667 26.668 32.6667H28.0013C30.5747 32.6667 32.668 30.5733 32.668 28V14H30.0013C29.6333 14 29.3347 13.7013 29.3347 13.3333C29.3347 12.9653 29.6333 12.6667 30.0013 12.6667H32.668V10.6667C32.668 8.09333 30.5747 6 28.0013 6H8C5.42667 6 3.33333 8.09333 3.33333 10.6667V12.6667H22C22.368 12.6667 22.6667 12.9653 22.6667 13.3333C22.6667 13.7013 22.368 14 22 14H3.33333V28C3.33333 30.5733 5.42667 32.6667 8 32.6667H9.33333C9.70133 32.6667 10 32.9653 10 33.3333C10 33.7013 9.70133 34 9.33333 34H8C4.692 34 2 31.308 2 28V10.6667C2 7.35867 4.692 4.66667 8 4.66667H10V2.66667C10 2.29867 10.2987 2 10.6667 2C11.0347 2 11.3333 2.29867 11.3333 2.66667V4.66667H24.6667V2.66667C24.6667 2.29867 24.9653 2 25.3333 2C25.7013 2 26 2.29867 26 2.66667V4.66667H28C31.308 4.66667 34.0013 7.35867 34.0013 10.6667ZM15.3347 26C15.3347 27.4707 16.5307 28.6667 18.0013 28.6667C19.472 28.6667 20.668 27.4707 20.668 26C20.668 25.632 20.9667 25.3333 21.3347 25.3333C21.7027 25.3333 22.0013 25.632 22.0013 26C22.0013 28.2053 20.2067 30 18.0013 30C15.796 30 14.0013 28.2053 14.0013 26C14.0013 23.7947 15.796 22 18.0013 22C18.3693 22 18.668 22.2987 18.668 22.6667C18.668 23.0347 18.3693 23.3333 18.0013 23.3333C16.5307 23.3333 15.3347 24.5293 15.3347 26ZM26.0013 26C26.0013 30.412 22.4133 34 18.0013 34C13.5893 34 10.0013 30.412 10.0013 26C10.0013 21.588 13.5893 18 18.0013 18C18.2467 18 18.488 18.012 18.7267 18.032C19.0933 18.064 19.364 18.3893 19.332 18.7547C19.3 19.1227 18.9867 19.388 18.6093 19.36C18.4093 19.3413 18.2067 19.332 18.0013 19.332C14.3253 19.332 11.3347 22.3227 11.3347 25.9987C11.3347 29.6747 14.3253 32.6653 18.0013 32.6653C21.6773 32.6653 24.668 29.6747 24.668 25.9987C24.668 25.7933 24.6587 25.5907 24.64 25.3907C24.608 25.0253 24.8787 24.7 25.2453 24.668C25.624 24.6507 25.936 24.9067 25.968 25.2733C25.9893 25.5133 26 25.7533 26 25.9987L26.0013 26Z" fill="#915A17"/>
</g>
<defs>
<clipPath id="clip0_547_20">
<rect width="32" height="32" fill="white" transform="translate(2 2)"/>
</clipPath>
</defs>
</svg>
