<svg width="36" height="38" viewBox="0 0 36 38" fill="none" xmlns="http://www.w3.org/2000/svg">
<path d="M0 17.1315C0 26.5929 14.5255 37.9151 17.6628 37.9995C20.8 38.084 36 26.5929 36 17.1315C36 7.67001 27.9411 0 18 0C8.05887 0 0 7.67001 0 17.1315Z" fill="#DAA520" fill-opacity="0.2"/>
<path d="M18 29C12.4858 29 8 24.5142 8 19C8 13.4858 12.4858 9 18 9C23.5142 9 28 13.4858 28 19C28 24.5142 23.5142 29 18 29ZM18 9.83333C12.9458 9.83333 8.83333 13.9458 8.83333 19C8.83333 24.0542 12.9458 28.1667 18 28.1667C23.0542 28.1667 27.1667 24.0542 27.1667 19C27.1667 13.9458 23.0542 9.83333 18 9.83333ZM20.3333 23.0833C20.5175 22.945 20.555 22.6842 20.4175 22.5L18.0008 19.2775V13.5833C18.0008 13.3533 17.8142 13.1667 17.5842 13.1667C17.3542 13.1667 17.1675 13.3533 17.1675 13.5833V19.4167C17.1675 19.5067 17.1967 19.5942 17.2508 19.6667L19.7508 23C19.8333 23.1092 19.9583 23.1667 20.0842 23.1667C20.1708 23.1667 20.2583 23.1392 20.3333 23.0833Z" fill="#915A17"/>
</svg>
