<svg width="36" height="38" viewBox="0 0 36 38" fill="none" xmlns="http://www.w3.org/2000/svg">
<path d="M0 17.1315C0 26.5929 14.5255 37.9151 17.6628 37.9995C20.8 38.084 36 26.5929 36 17.1315C36 7.67001 27.9411 0 18 0C8.05887 0 0 7.67001 0 17.1315Z" fill="#DAA520" fill-opacity="0.2"/>
<path d="M24.5 10H12.5C10.01 10 8 12.01 8 14.5V23.5C8 25.99 10.01 28 12.5 28H24.5C26.99 28 29 25.99 29 23.5V14.5C29 12.01 26.99 10 24.5 10ZM24.5 11C25.45 11 26.32 11.38 26.95 12L20.98 17.97C19.61 19.34 17.4 19.34 16.03 17.97L10.05 12C10.68 11.38 11.55 11 12.5 11H24.5ZM28 23.5C28 25.43 26.43 27 24.5 27H12.5C10.57 27 9 25.43 9 23.5V14.5C9 13.88 9.16 13.31 9.44 12.8L15.32 18.68C16.2 19.56 17.35 20 18.5 20C19.65 20 20.8 19.56 21.68 18.68L27.56 12.8C27.84 13.3 28 13.88 28 14.5V23.5Z" fill="#915A17"/>
</svg>
