<svg width="16" height="16" viewBox="0 0 16 16" fill="none" xmlns="http://www.w3.org/2000/svg">
<g clip-path="url(#clip0_448_540)">
<path d="M14.7569 6.04799L2.24222 0.161323C1.66022 -0.122677 0.999549 -0.0300106 0.518216 0.403989C0.0362155 0.838656 -0.125118 1.48666 0.117549 2.13799L3.24288 8.00132L0.155549 13.9067C-0.0664512 14.516 0.0955488 15.164 0.578882 15.5973C0.875549 15.864 1.24088 16.0007 1.61222 16.0007C1.84488 16.0007 2.07888 15.9473 2.30155 15.838L14.7589 9.95666C15.5249 9.59732 16.0009 8.84732 16.0002 7.99999C16.0002 7.15332 15.5222 6.40532 14.7569 6.04799ZM0.724882 1.86666C0.572216 1.45066 0.748216 1.09466 0.964216 0.899989C1.10688 0.771989 1.31688 0.667323 1.55888 0.667323C1.68355 0.667323 1.81622 0.695323 1.95222 0.761989C1.95355 0.761989 1.95555 0.763323 1.95688 0.763989L14.4735 6.65199C14.9069 6.85466 15.1995 7.22132 15.2975 7.66666H3.81955L0.724882 1.86666ZM14.4742 9.35399L2.01222 15.238C1.61422 15.432 1.24155 15.2953 1.02488 15.1013C0.808216 14.9073 0.630882 14.5513 0.764882 14.1747L3.82155 8.33266H15.2989C15.2029 8.77999 14.9096 9.14932 14.4742 9.35332V9.35399Z" fill="white"/>
</g>
<defs>
<clipPath id="clip0_448_540">
<rect width="16" height="16" fill="white"/>
</clipPath>
</defs>
</svg>
