<svg width="35" height="38" viewBox="0 0 35 38" fill="none" xmlns="http://www.w3.org/2000/svg">
<path d="M0 17.1315C0 26.5929 14.122 37.9151 17.1721 37.9995C20.2222 38.084 35 26.5929 35 17.1315C35 7.67001 27.165 0 17.5 0C7.83502 0 0 7.67001 0 17.1315Z" fill="#DAA520" fill-opacity="0.2"/>
<g clip-path="url(#clip0_445_322)">
<path d="M34.8044 31.1386C34.6738 31.2693 34.5031 31.3333 34.3324 31.3333C34.1618 31.3333 33.9911 31.2679 33.8604 31.1386C32.8751 30.1519 32.3324 28.8413 32.3324 27.4479V19.6466C32.3324 17.8359 31.7778 16.0986 30.7284 14.6239L23.3071 4.19195C22.6724 3.28261 21.4218 3.06261 20.5191 3.69595C20.0804 4.00128 19.7884 4.45994 19.6951 4.98661C19.6018 5.51328 19.7204 6.04261 20.0258 6.48128L25.6044 14.6586C26.4458 15.2959 26.9978 16.3306 26.9978 17.4773V25.3346C26.9978 25.7026 26.6991 26.0013 26.3311 26.0013C25.9631 26.0013 25.6644 25.7026 25.6644 25.3346V17.4773C25.6644 16.4253 24.9511 15.5159 24.0044 15.3613C23.4044 15.2666 22.8231 15.4226 22.3698 15.8093C21.9218 16.1906 21.6644 16.7466 21.6644 17.3346V26.0013C21.6644 30.3119 24.1124 32.8399 24.1364 32.8639C24.3951 33.1253 24.3938 33.5479 24.1338 33.8066C24.0031 33.9359 23.8338 34.0013 23.6631 34.0013C23.4924 34.0013 23.3231 33.9359 23.1924 33.8066C23.0751 33.6893 20.3311 30.8893 20.3311 26.0013V17.3346C20.3311 16.3559 20.7591 15.4293 21.5058 14.7946C22.0804 14.3066 22.7991 14.0373 23.5471 14.0106L18.9978 7.33995L14.4498 14.0093C15.1978 14.0359 15.9151 14.3053 16.4898 14.7933C17.2364 15.4293 17.6644 16.3546 17.6644 17.3333V25.9999C17.6644 30.8866 14.9191 33.6879 14.8031 33.8053C14.6724 33.9359 14.5031 33.9999 14.3324 33.9999C14.1618 33.9999 13.9924 33.9346 13.8618 33.8053C13.6018 33.5466 13.6004 33.1239 13.8591 32.8626C13.8844 32.8373 16.3311 30.3106 16.3311 25.9999V17.3333C16.3311 16.7466 16.0738 16.1906 15.6258 15.8079C15.1724 15.4213 14.5911 15.2653 13.9911 15.3599C13.0458 15.5146 12.3311 16.4239 12.3311 17.4759V25.3333C12.3311 25.7013 12.0324 25.9999 11.6644 25.9999C11.2964 25.9999 10.9978 25.7013 10.9978 25.3333V17.4759C10.9978 16.3293 11.5498 15.2946 12.3911 14.6573L17.9658 6.48394C18.2764 6.03995 18.3938 5.51061 18.3004 4.98394C18.2071 4.45728 17.9151 3.99995 17.4764 3.69328C16.5738 3.06128 15.3244 3.27995 14.6911 4.18528L7.26843 14.6226C6.21776 16.0959 5.66309 17.8333 5.66309 19.6453V27.4466C5.66309 28.8399 5.12043 30.1493 4.13509 31.1373C4.00443 31.2679 3.83376 31.3319 3.66309 31.3319C3.49243 31.3319 3.32176 31.2666 3.19109 31.1373C2.93109 30.8773 2.93109 30.4546 3.19109 30.1946C3.92443 29.4599 4.32976 28.4853 4.32976 27.4466V19.6453C4.32976 17.5559 4.96976 15.5519 6.18176 13.8493L13.6044 3.41728C14.6538 1.91728 16.7364 1.54928 18.2431 2.60128C18.5418 2.81061 18.7884 3.07061 18.9991 3.35461C19.2111 3.07061 19.4564 2.80928 19.7551 2.60128C21.2618 1.55195 23.3431 1.91728 24.3964 3.42128L31.8124 13.8506C33.0244 15.5519 33.6644 17.5559 33.6644 19.6466V27.4479C33.6644 28.4853 34.0684 29.4613 34.8031 30.1959C35.0631 30.4559 35.0644 30.8786 34.8044 31.1386Z" fill="#915A17"/>
</g>
<defs>
<clipPath id="clip0_445_322">
<rect width="32" height="32" fill="white" transform="translate(3 2)"/>
</clipPath>
</defs>
</svg>
