<svg width="20" height="17" viewBox="0 0 20 17" fill="none" xmlns="http://www.w3.org/2000/svg">
<path d="M2.60576 9.50793L9.41491 15.6471C9.64995 15.8586 9.76746 15.9648 9.90457 15.9912C9.96697 16.0029 10.0312 16.0029 10.0936 15.9912C10.2326 15.9648 10.3492 15.8596 10.5832 15.6471L17.3924 9.50887C18.3172 8.67535 18.8849 7.54065 18.9843 6.32668C19.0837 5.11272 18.7078 3.90681 17.93 2.9448L17.6264 2.56974C15.6992 0.185879 11.8309 0.585382 10.4765 3.30952C10.4334 3.39585 10.3658 3.46873 10.2814 3.51974C10.197 3.57075 10.0993 3.59782 9.99956 3.59782C9.89983 3.59782 9.80214 3.57075 9.71775 3.51974C9.63336 3.46873 9.56572 3.39585 9.52264 3.30952C8.16825 0.585382 4.29997 0.184939 2.37269 2.56974L2.0691 2.94574C1.29187 3.90761 0.916268 5.11312 1.01569 6.32665C1.11512 7.54017 1.68145 8.6745 2.60576 9.50793Z" stroke="white"/>
</svg>
