<svg width="36" height="38" viewBox="0 0 36 38" fill="none" xmlns="http://www.w3.org/2000/svg">
<path d="M0 17.1315C0 26.5929 14.5255 37.9151 17.6628 37.9995C20.8 38.084 36 26.5929 36 17.1315C36 7.67001 27.9411 0 18 0C8.05887 0 0 7.67001 0 17.1315Z" fill="#DAA520" fill-opacity="0.2"/>
<path d="M18 31C16.783 31 15.487 30.356 14.617 29.321C10.35 24.245 8 19.869 8 17C8 11.486 12.486 7 18 7C23.514 7 28 11.486 28 17C28 19.869 25.65 24.245 21.383 29.321C20.514 30.356 19.217 31 18 31ZM18 8C13.038 8 9 12.038 9 17C9 19.595 11.327 23.852 15.383 28.678C16.057 29.481 17.085 29.999 18 29.999C18.915 29.999 19.942 29.48 20.617 28.678C24.674 23.852 27 19.595 27 17C27 12.037 22.963 8 18 8Z" fill="#915A17"/>
<path d="M18 21C15.794 21 14 19.206 14 17C14 14.794 15.794 13 18 13C20.206 13 22 14.794 22 17C22 19.206 20.206 21 18 21ZM18 14C16.346 14 15 15.346 15 17C15 18.654 16.346 20 18 20C19.654 20 21 18.654 21 17C21 15.346 19.654 14 18 14Z" fill="#915A17"/>
</svg>
