<svg width="42" height="42" viewBox="0 0 42 42" fill="none" xmlns="http://www.w3.org/2000/svg">
<g opacity="0.5" filter="url(#filter0_d_547_35)">
<rect x="5" y="4" width="32" height="32" rx="6" fill="#161B33"/>
</g>
<g clip-path="url(#clip0_547_35)">
<path d="M29 14.3333C29 14.52 28.8533 14.6667 28.6667 14.6667H13.3333C13.1467 14.6667 13 14.52 13 14.3333C13 14.1467 13.1467 14 13.3333 14H28.6667C28.8533 14 29 14.1467 29 14.3333ZM28.3333 26H13.3333C13.1467 26 13 26.1467 13 26.3333C13 26.52 13.1467 26.6667 13.3333 26.6667H28.3333C28.52 26.6667 28.6667 26.52 28.6667 26.3333C28.6667 26.1467 28.52 26 28.3333 26ZM28.6667 20H13.3333C13.1467 20 13 20.1467 13 20.3333C13 20.52 13.1467 20.6667 13.3333 20.6667H28.6667C28.8533 20.6667 29 20.52 29 20.3333C29 20.1467 28.8533 20 28.6667 20Z" fill="white"/>
</g>
<defs>
<filter id="filter0_d_547_35" x="0" y="0" width="42" height="42" filterUnits="userSpaceOnUse" color-interpolation-filters="sRGB">
<feFlood flood-opacity="0" result="BackgroundImageFix"/>
<feColorMatrix in="SourceAlpha" type="matrix" values="0 0 0 0 0 0 0 0 0 0 0 0 0 0 0 0 0 0 127 0" result="hardAlpha"/>
<feMorphology radius="1" operator="dilate" in="SourceAlpha" result="effect1_dropShadow_547_35"/>
<feOffset dy="1"/>
<feGaussianBlur stdDeviation="2"/>
<feComposite in2="hardAlpha" operator="out"/>
<feColorMatrix type="matrix" values="0 0 0 0 0.593848 0 0 0 0 0.593848 0 0 0 0 0.593848 0 0 0 0.25 0"/>
<feBlend mode="normal" in2="BackgroundImageFix" result="effect1_dropShadow_547_35"/>
<feBlend mode="normal" in="SourceGraphic" in2="effect1_dropShadow_547_35" result="shape"/>
</filter>
<clipPath id="clip0_547_35">
<rect width="16" height="16" fill="white" transform="translate(13 12)"/>
</clipPath>
</defs>
</svg>
