<svg width="35" height="38" viewBox="0 0 35 38" fill="none" xmlns="http://www.w3.org/2000/svg">
<path d="M0 17.1315C0 26.5929 14.122 37.9151 17.1721 37.9995C20.2222 38.084 35 26.5929 35 17.1315C35 7.67001 27.165 0 17.5 0C7.83502 0 0 7.67001 0 17.1315Z" fill="#DAA520" fill-opacity="0.2"/>
<g clip-path="url(#clip0_547_19)">
<path d="M26.0747 23.932L27.7667 17.1987L33.364 20.0427L33.968 18.8533L28.0987 15.8707L28.564 14.0173C28.8093 13.052 28.6027 12.0467 27.996 11.2573C27.3893 10.468 26.4693 10.0093 25.4747 9.99867C24.58 9.98933 23.7093 10.2147 22.92 10.6613L15.6267 15.0587L7.036 10.5133C6.524 10.192 5.928 10 5.29067 10C4.28533 10 3.34933 10.4507 2.72133 11.236C2.09333 12.0213 1.86133 13.0333 2.084 14.0227L4.72133 25.0653L7.368 24.412L9.756 34.0013H11.128L8.66267 24.0933L11.2907 23.4453L8.56133 12.808L15.668 16.5947L22.4427 12.5093L20.7533 19.8133C20.4187 21.2413 21.076 22.7453 22.3693 23.48L28.74 26.8573L32.644 34.0147L33.8147 33.376L29.7187 25.8667L26.0733 23.9347L26.0747 23.932ZM5.70533 23.4493L3.38267 13.7213C3.25067 13.1387 3.38933 12.536 3.76267 12.0693C4.136 11.6027 4.692 11.3347 5.29067 11.3347C6.18267 11.3347 6.96133 11.9373 7.184 12.8013L9.66533 22.472L5.70533 23.4493ZM22.0533 20.1133L24.012 11.648C24.4667 11.464 24.944 11.3453 25.4613 11.3333C26.0453 11.34 26.584 11.6093 26.94 12.072C27.296 12.5347 27.4173 13.1253 27.2733 13.692L24.8613 23.288L23.012 22.308C22.2467 21.8733 21.852 20.9707 22.0533 20.112V20.1133ZM26.6667 8.668C28.504 8.668 30 7.172 30 5.33467C30 3.49733 28.504 2.00133 26.6667 2.00133C24.8293 2.00133 23.3333 3.49733 23.3333 5.33467C23.3333 7.172 24.8293 8.668 26.6667 8.668ZM26.6667 3.33467C27.7693 3.33467 28.6667 4.232 28.6667 5.33467C28.6667 6.43733 27.7693 7.33467 26.6667 7.33467C25.564 7.33467 24.6667 6.43733 24.6667 5.33467C24.6667 4.232 25.564 3.33467 26.6667 3.33467ZM5.33333 8.66667C7.17067 8.66667 8.66667 7.17067 8.66667 5.33333C8.66667 3.496 7.17067 2 5.33333 2C3.496 2 2 3.496 2 5.33333C2 7.17067 3.496 8.66667 5.33333 8.66667ZM5.33333 3.33333C6.436 3.33333 7.33333 4.23067 7.33333 5.33333C7.33333 6.436 6.436 7.33333 5.33333 7.33333C4.23067 7.33333 3.33333 6.436 3.33333 5.33333C3.33333 4.23067 4.23067 3.33333 5.33333 3.33333ZM21.14 25.636L22.052 26.1547L19.744 34.0013H18.2147L20.836 25.4547C20.936 25.5173 21.0373 25.5787 21.14 25.636Z" fill="#915A17"/>
</g>
<defs>
<clipPath id="clip0_547_19">
<rect width="32" height="32" fill="white" transform="translate(2 2)"/>
</clipPath>
</defs>
</svg>
