<svg width="36" height="38" viewBox="0 0 36 38" fill="none" xmlns="http://www.w3.org/2000/svg">
<g clip-path="url(#clip0_1150_4)">
<path d="M7.73045 6.76995L8.85045 5.78995C9.87045 4.76995 11.6004 4.71995 12.7004 5.83995L14.5704 8.28995C15.6204 9.33995 15.6204 11.05 14.5704 12.09L13.0804 13.62C14.7004 17.42 17.6904 20.42 21.3705 21.92L22.9004 20.43C23.4104 19.92 24.0805 19.64 24.8005 19.64C25.5205 19.64 26.1905 19.92 26.6505 20.39L29.1905 22.35C30.2405 23.4 30.2405 25.1099 29.2105 26.1299L28.1905 27.2999C27.0905 28.4 25.6105 29.01 24.0005 29.01C16.2504 29.01 5.98045 18.73 5.98045 10.99C5.98045 9.38995 6.59045 7.89995 7.71045 6.77995L7.73045 6.76995ZM24.0205 28C25.3605 28 26.5905 27.5 27.4805 26.61L28.5005 25.43C29.1605 24.77 29.1605 23.7 28.5505 23.08L26.0105 21.12C25.6905 20.8 25.2705 20.62 24.8105 20.62C24.3505 20.62 23.9304 20.8 23.6104 21.12L21.8405 22.85C21.7004 22.99 21.5005 23.0299 21.3105 22.9599C17.1404 21.3699 13.7504 17.98 12.0204 13.68C11.9504 13.5 11.9904 13.29 12.1304 13.14L13.8604 11.37C14.5204 10.71 14.5204 9.63995 13.8204 8.92995L11.9504 6.47995C11.2904 5.81995 10.2204 5.81995 9.53045 6.49995L8.41045 7.47995C7.50045 8.38995 7.00045 9.61995 7.00045 10.96C7.00045 18.12 16.8604 27.9799 24.0205 27.9799V28Z" fill="#915A17"/>
</g>
<path d="M0 17.1315C0 26.5929 14.5255 37.9151 17.6628 37.9995C20.8 38.084 36 26.5929 36 17.1315C36 7.67001 27.9411 0 18 0C8.05888 0 0 7.67001 0 17.1315Z" fill="#DAA520" fill-opacity="0.2"/>
<defs>
<clipPath id="clip0_1150_4">
<rect width="24" height="24" fill="white" transform="matrix(-1 0 0 1 30 5)"/>
</clipPath>
</defs>
</svg>
