<svg width="35" height="38" viewBox="0 0 35 38" fill="none" xmlns="http://www.w3.org/2000/svg">
<path d="M0 17.1315C0 26.5929 14.122 37.9151 17.1721 37.9995C20.2222 38.084 35 26.5929 35 17.1315C35 7.67001 27.165 0 17.5 0C7.83502 0 0 7.67001 0 17.1315Z" fill="#DAA520" fill-opacity="0.2"/>
<g clip-path="url(#clip0_547_18)">
<path d="M24.6133 31.8547C24.7573 32.1933 24.6 32.5853 24.2613 32.7293C22.2773 33.5733 20.172 34.0013 18 34.0013C9.17733 34 2 26.8227 2 18C2 9.17733 9.17733 2 18 2C18.2333 2 18.4653 2.004 18.696 2.01467C19.064 2.03067 19.3493 2.34267 19.3333 2.70933C19.3173 3.07733 19.0067 3.38667 18.6387 3.34667C18.4267 3.33733 18.2147 3.33333 18.0013 3.33333C9.91333 3.33333 3.33333 9.91333 3.33333 18C3.33333 26.0867 9.91333 32.6667 18 32.6667C19.9907 32.6667 21.9213 32.2747 23.7387 31.5013C24.0787 31.356 24.4693 31.5147 24.6133 31.8533V31.8547ZM18 8.66667C18.2093 8.66667 18.416 8.67333 18.6213 8.688C18.6373 8.688 18.652 8.688 18.668 8.688C19.016 8.688 19.308 8.41867 19.3333 8.06667C19.3587 7.69867 19.0813 7.38133 18.7133 7.356C18.4787 7.34 18.24 7.332 18.0013 7.332C12.12 7.332 7.33467 12.1173 7.33467 17.9987C7.33467 23.88 12.12 28.6653 18.0013 28.6653C20.332 28.6653 22.5453 27.928 24.4027 26.532C24.6973 26.3107 24.756 25.8933 24.536 25.5987C24.3147 25.3053 23.8973 25.2467 23.6027 25.4653C21.9773 26.6867 20.0413 27.332 18.0027 27.332C12.856 27.332 8.66933 23.1453 8.66933 17.9987C8.66933 12.852 12.856 8.66533 18.0027 8.66533L18 8.66667ZM33.3333 2C32.9653 2 32.6667 2.29867 32.6667 2.66667V12C32.6667 14.344 30.9227 16.272 28.6667 16.5987V2.66667C28.6667 2.29867 28.368 2 28 2C27.632 2 27.3333 2.29867 27.3333 2.66667V16.5987C25.0773 16.272 23.3333 14.344 23.3333 12V2.66667C23.3333 2.29867 23.0347 2 22.6667 2C22.2987 2 22 2.29867 22 2.66667V12C22 15.08 24.3413 17.596 27.3333 17.932V33.3333C27.3333 33.7013 27.632 34 28 34C28.368 34 28.6667 33.7013 28.6667 33.3333V17.932C31.6587 17.596 34 15.08 34 12V2.66667C34 2.29867 33.7013 2 33.3333 2Z" fill="#915A17"/>
</g>
<defs>
<clipPath id="clip0_547_18">
<rect width="32" height="32" fill="white" transform="translate(2 2)"/>
</clipPath>
</defs>
</svg>
