<svg width="18" height="18" viewBox="0 0 18 18" fill="none" xmlns="http://www.w3.org/2000/svg">
<path d="M7.33268 2.33344C6.0066 2.33344 4.73483 2.86022 3.79715 3.7979C2.85947 4.73559 2.33268 6.00736 2.33268 7.33344C2.33268 8.65952 2.85947 9.93129 3.79715 10.869C4.73483 11.8067 6.0066 12.3334 7.33268 12.3334C8.65876 12.3334 9.93053 11.8067 10.8682 10.869C11.8059 9.93129 12.3327 8.65952 12.3327 7.33344C12.3327 6.00736 11.8059 4.73559 10.8682 3.7979C9.93053 2.86022 8.65876 2.33344 7.33268 2.33344ZM0.666016 7.33344C0.666168 6.27249 0.919531 5.22689 1.40505 4.28356C1.89057 3.34022 2.59422 2.52638 3.45752 1.90967C4.32082 1.29297 5.31885 0.891216 6.36864 0.737796C7.41844 0.584377 8.4897 0.683725 9.49338 1.02758C10.4971 1.37144 11.4042 1.94988 12.1394 2.71483C12.8745 3.47977 13.4165 4.40913 13.7203 5.42567C14.024 6.4422 14.0808 7.51656 13.8858 8.55944C13.6909 9.60233 13.2498 10.5836 12.5993 11.4218L17.0885 15.9109C17.2403 16.0681 17.3243 16.2786 17.3224 16.4971C17.3205 16.7156 17.2329 16.9246 17.0784 17.0791C16.9239 17.2336 16.7148 17.3213 16.4963 17.3232C16.2779 17.3251 16.0673 17.2411 15.9102 17.0893L11.421 12.6001C10.4356 13.3652 9.2552 13.8384 8.01415 13.9659C6.77311 14.0935 5.52117 13.8702 4.40072 13.3215C3.28027 12.7728 2.33626 11.9208 1.67604 10.8622C1.01581 9.80361 0.665877 8.58102 0.666016 7.33344Z" fill="#495057"/>
</svg>
