<svg width="35" height="38" viewBox="0 0 35 38" fill="none" xmlns="http://www.w3.org/2000/svg">
<path d="M0 17.1315C0 26.5929 14.122 37.9151 17.1721 37.9995C20.2222 38.084 35 26.5929 35 17.1315C35 7.67001 27.165 0 17.5 0C7.83502 0 0 7.67001 0 17.1315Z" fill="#DAA520" fill-opacity="0.2"/>
<g clip-path="url(#clip0_547_22)">
<path d="M7.33333 7.33333C8.804 7.33333 10 6.13733 10 4.66667C10 3.196 8.804 2 7.33333 2C5.86267 2 4.66667 3.196 4.66667 4.66667C4.66667 6.13733 5.86267 7.33333 7.33333 7.33333ZM7.33333 3.33333C8.06933 3.33333 8.66667 3.932 8.66667 4.66667C8.66667 5.40133 8.06933 6 7.33333 6C6.59733 6 6 5.40133 6 4.66667C6 3.932 6.59733 3.33333 7.33333 3.33333ZM14 8.66667C15.4707 8.66667 16.6667 7.47067 16.6667 6C16.6667 4.52933 15.4707 3.33333 14 3.33333C12.5293 3.33333 11.3333 4.52933 11.3333 6C11.3333 7.47067 12.5293 8.66667 14 8.66667ZM14 4.66667C14.736 4.66667 15.3333 5.26533 15.3333 6C15.3333 6.73467 14.736 7.33333 14 7.33333C13.264 7.33333 12.6667 6.73467 12.6667 6C12.6667 5.26533 13.264 4.66667 14 4.66667ZM20.6667 7.33333C22.1373 7.33333 23.3333 6.13733 23.3333 4.66667C23.3333 3.196 22.1373 2 20.6667 2C19.196 2 18 3.196 18 4.66667C18 6.13733 19.196 7.33333 20.6667 7.33333ZM20.6667 3.33333C21.4027 3.33333 22 3.932 22 4.66667C22 5.40133 21.4027 6 20.6667 6C19.9307 6 19.3333 5.40133 19.3333 4.66667C19.3333 3.932 19.9307 3.33333 20.6667 3.33333ZM10.0827 13.1973C10.4653 11.344 12.1427 10 14.068 10C15.9933 10 17.668 11.3453 18.0533 13.1973C18.1293 13.5573 17.9613 14 17.4 14C17.092 14 16.8147 13.784 16.7493 13.4693C16.492 12.232 15.364 11.3333 14.068 11.3333C12.772 11.3333 11.644 12.2307 11.3867 13.4693C11.312 13.8307 10.9547 14.056 10.5987 13.9867C10.2373 13.912 10.0067 13.5587 10.0813 13.1987L10.0827 13.1973ZM20.6667 8.66667C22.592 8.66667 24.2693 10.012 24.652 11.864C24.728 12.2253 24.5 12.6787 23.9987 12.6667C23.6907 12.6587 23.4133 12.4493 23.348 12.136C23.092 10.8987 21.964 10 20.6667 10C20.2933 10 19.9307 10.072 19.5893 10.2147C19.2547 10.3573 18.8587 10.196 18.7173 9.856C18.5773 9.516 18.7373 9.12667 19.0773 8.984C19.5813 8.77333 20.116 8.66667 20.6667 8.66667ZM3.348 11.864C3.73067 10.0107 5.408 8.66667 7.33333 8.66667C7.884 8.66667 8.41867 8.77333 8.92267 8.984C9.26267 9.12533 9.42267 9.516 9.28267 9.856C9.14133 10.196 8.74533 10.356 8.41067 10.2147C8.06933 10.0733 7.708 10 7.33333 10C6.036 10 4.90933 10.8973 4.652 12.136C4.58667 12.4507 4.30667 12.7107 4.00133 12.6667C3.46133 12.5893 3.272 12.2253 3.348 11.864ZM32.908 14.872C32.2467 14.2693 31.3867 13.9733 30.496 14.0027C29.6027 14.0453 28.7787 14.432 28.1773 15.0933L23.2013 20.5627C22.7827 19.0853 21.4213 18 19.8107 18H6.66667C4.09333 18 2 20.0933 2 22.6667V29.3333C2 31.9067 4.09333 34 6.66667 34H14.62C18.2293 34 21.676 32.4547 24.0773 29.7587L33.152 19.5733C34.3667 18.2107 34.2573 16.1013 32.908 14.872ZM32.1573 18.6867L23.0827 28.872C20.9347 31.284 17.8493 32.6667 14.62 32.6667H6.66667C4.828 32.6667 3.33333 31.1707 3.33333 29.3333V22.6667C3.33333 20.8293 4.828 19.3333 6.66667 19.3333H19.8093C21.016 19.3333 22 20.316 22 21.5227C22 22.6053 21.192 23.5373 20.136 23.688L11.9213 24.6707C11.556 24.7147 11.2947 25.0467 11.3387 25.412C11.3813 25.7773 11.7147 26.0307 12.08 25.9947L20.3107 25.0093C21.672 24.8147 22.7693 23.8387 23.1707 22.5773L29.1653 15.9907C29.5267 15.5933 30.0227 15.36 30.56 15.3347C31.0907 15.3107 31.612 15.4947 32.0107 15.8587C32.8227 16.5987 32.888 17.8653 32.1573 18.6867Z" fill="#915A17"/>
</g>
<defs>
<clipPath id="clip0_547_22">
<rect width="32" height="32" fill="white" transform="translate(2 2)"/>
</clipPath>
</defs>
</svg>
