<svg width="19" height="19" viewBox="0 0 19 19" fill="none" xmlns="http://www.w3.org/2000/svg">
<path d="M14.8678 11.4895C14.8678 11.7229 14.8678 15.1154 14.8678 15.1154C14.8678 17.1821 13.1845 18.8654 11.1178 18.8654H4.45117C2.38451 18.8654 0.701172 17.1821 0.701172 15.1154V8.44873C0.701172 6.38206 2.38451 4.69873 4.45117 4.69873H6.11784C6.35117 4.69873 6.5345 4.88206 6.5345 5.1154C6.5345 5.34873 6.35117 5.53206 6.11784 5.53206H4.45117C2.84284 5.53206 1.53451 6.8404 1.53451 8.44873V15.1154C1.53451 16.7237 2.84284 18.0321 4.45117 18.0321H11.1178C12.7262 18.0321 14.0345 16.7237 14.0345 15.1154C14.0345 15.1154 14.0345 11.7229 14.0345 11.4895C14.0345 11.2562 14.2178 11.0729 14.4512 11.0729C14.6845 11.0729 14.8678 11.2562 14.8678 11.4895Z" fill="white"/>
<mask id="mask0_454_169" style="mask-type:alpha" maskUnits="userSpaceOnUse" x="3" y="-3" width="19" height="19">
<rect x="11.8613" y="-2.49976" width="13.3333" height="12.3404" transform="rotate(45.5419 11.8613 -2.49976)" fill="#D9D9D9"/>
</mask>
<g mask="url(#mask0_454_169)">
<path d="M14.8009 1.72643L8.31868 1.6473C8.08884 1.64236 7.90107 1.83171 7.89613 2.06154C7.89119 2.29137 8.08053 2.47915 8.31037 2.48409L14.7984 2.5573C14.9988 2.55647 15.1817 2.60874 15.3529 2.69642C15.3235 2.71422 15.2824 2.73206 15.253 2.76165L9.22656 8.8384C7.77129 10.3058 7.98525 10.0564 6.46661 11.5466L6.86593 11.7464C7.0316 11.9107 7.24025 11.9593 7.40456 11.7937C7.56886 11.628 7.45518 11.744 7.75891 11.446L7.91077 11.2969C8.83303 10.392 8.68573 10.5672 9.81826 9.4252L15.8447 3.34845C15.8447 3.34845 15.8916 3.28933 15.9091 3.24801C15.9982 3.41853 16.052 3.60097 16.0528 3.80132L16.1799 10.2768C16.1868 10.5065 16.3702 10.6885 16.6059 10.6875C16.7178 10.6811 16.8178 10.6395 16.8941 10.5625C16.9704 10.4856 17.0171 10.3794 17.0166 10.2615L16.8895 3.78606C16.8848 2.64291 15.944 1.7099 14.8008 1.71465L14.8009 1.72643Z" fill="white"/>
</g>
<path d="M8.14648 9.91675L8.72666 10.508L8.00986 11.2114C7.84659 11.3716 7.58436 11.3691 7.42414 11.2058C7.26393 11.0426 7.26641 10.7803 7.42968 10.6201L8.14648 9.91675Z" fill="white"/>
</svg>
