<svg width="35" height="38" viewBox="0 0 35 38" fill="none" xmlns="http://www.w3.org/2000/svg">
<path d="M0 17.1315C0 26.5929 14.122 37.9151 17.1721 37.9995C20.2222 38.084 35 26.5929 35 17.1315C35 7.67001 27.165 0 17.5 0C7.83502 0 0 7.67001 0 17.1315Z" fill="#DAA520" fill-opacity="0.2"/>
<g clip-path="url(#clip0_445_306)">
<path d="M33.1859 13.8C32.5589 13.08 31.6386 12.6667 30.6782 12.6667H29.9312C29.2643 6.64 24.1421 2 18.0063 2C11.8704 2 6.74833 6.64 6.08139 12.6667H5.33442C4.37402 12.6667 3.45364 13.08 2.82672 13.8C2.19979 14.52 1.90634 15.48 2.02639 16.44L3.52034 27.64C4.00053 31.2667 7.13516 34 10.79 34H25.2093C28.8774 34 31.9987 31.2667 32.4789 27.64L33.9729 16.44C34.0929 15.4933 33.8128 14.52 33.1725 13.8H33.1859ZM18.0063 3.33333C23.4085 3.33333 27.9304 7.37333 28.5973 12.6667H7.41527C8.06887 7.37333 12.5907 3.33333 18.0063 3.33333ZM32.6657 16.2667L31.1717 27.4667C30.7715 30.44 28.2238 32.68 25.2226 32.68H10.79C7.78876 32.68 5.24104 30.44 4.84088 27.4667L3.34693 16.2667C3.2669 15.6933 3.4403 15.12 3.82713 14.68C4.21396 14.24 4.76085 14 5.33442 14H30.6782C31.2517 14 31.7986 14.2533 32.1855 14.68C32.5723 15.1067 32.7457 15.6933 32.6657 16.2667Z" fill="#915A17"/>
</g>
<defs>
<clipPath id="clip0_445_306">
<rect width="32" height="32" fill="white" transform="translate(2 2)"/>
</clipPath>
</defs>
</svg>
