<svg width="27" height="29" viewBox="0 0 27 29" fill="none" xmlns="http://www.w3.org/2000/svg">
<path d="M0.000413895 13.074C0.000413895 20.2946 10.7778 28.9352 13.1055 28.9996C15.4332 29.0641 26.7109 20.2946 26.7109 13.074C26.7109 5.85343 20.7316 0 13.3557 0C5.97977 0 0.000413895 5.85343 0.000413895 13.074Z" fill="#F8EDD2"/>
<path d="M5.3399 4.54366C5.3399 4.26283 5.56782 4.03491 5.84865 4.03491H10.8497C12.3434 4.03491 13.7475 4.76548 14.6032 5.99055L19.8057 13.4356C19.9665 13.6666 19.9105 13.983 19.6795 14.1438C19.591 14.2058 19.4893 14.2353 19.3885 14.2353C19.2288 14.2353 19.0711 14.1601 18.9714 14.0186L15.1394 8.53531L6.14983 15.1287C6.05928 15.1949 5.95346 15.2274 5.84865 15.2274C5.69298 15.2274 5.5373 15.1552 5.4386 15.0198C5.27275 14.7929 5.32159 14.4745 5.54747 14.3086L14.5574 7.70096L13.7699 6.57357C13.1044 5.62119 12.0117 5.05241 10.8507 5.05241H5.84865C5.56782 5.05241 5.3399 4.82449 5.3399 4.54366ZM18.5674 7.59616C18.5674 6.19405 19.708 5.05241 21.1112 5.05241C22.5143 5.05241 23.6549 6.19405 23.6549 7.59616C23.6549 8.99828 22.5143 10.1399 21.1112 10.1399C19.708 10.1399 18.5674 8.99828 18.5674 7.59616ZM19.5849 7.59616C19.5849 8.43763 20.2697 9.12241 21.1112 9.12241C21.9526 9.12241 22.6374 8.43763 22.6374 7.59616C22.6374 6.75469 21.9526 6.06991 21.1112 6.06991C20.2697 6.06991 19.5849 6.75469 19.5849 7.59616ZM25.867 22.7101C25.3745 23.1344 24.7365 23.3674 24.0711 23.3674C22.8826 23.3674 21.7156 22.6358 21.3564 21.6651C21.2088 21.2653 20.5495 21.2653 20.402 21.6651C20.0428 22.6358 18.8767 23.3674 17.6883 23.3674C16.4998 23.3674 15.3328 22.6358 14.9736 21.6651C14.8261 21.2653 14.1667 21.2653 14.0192 21.6651C13.66 22.6358 12.4929 23.3674 11.3045 23.3674C10.1161 23.3674 8.95 22.6358 8.59082 21.6651C8.44328 21.2653 7.78394 21.2653 7.6364 21.6651C7.27722 22.6358 6.11015 23.3674 4.92171 23.3674C4.25728 23.3674 3.61931 23.1344 3.12582 22.7101C2.91215 22.527 2.59164 22.5514 2.40849 22.7651C2.22432 22.9777 2.24976 23.2992 2.46241 23.4824C3.14007 24.0644 4.01308 24.3849 4.92171 24.3849C6.18239 24.3849 7.39831 23.7805 8.11361 22.8648C8.82891 23.7805 10.0428 24.3849 11.3045 24.3849C12.5662 24.3849 13.7811 23.7805 14.4964 22.8648C15.2117 23.7805 16.4266 24.3849 17.6883 24.3849C18.95 24.3849 20.1639 23.7805 20.8792 22.8648C21.5945 23.7805 22.8094 24.3849 24.0711 24.3849C24.9797 24.3849 25.8527 24.0644 26.5304 23.4824C26.743 23.2992 26.7674 22.9777 26.5843 22.7651C26.4022 22.5514 26.0816 22.528 25.867 22.7101ZM2.46445 18.3949C3.1421 18.9769 4.01512 19.2974 4.92375 19.2974C6.18443 19.2974 7.40034 18.693 8.11564 17.7773C8.83095 18.693 10.0448 19.2974 11.3065 19.2974C12.5682 19.2974 13.7831 18.693 14.4984 17.7773C15.2137 18.693 16.4286 19.2974 17.6903 19.2974C18.952 19.2974 20.1659 18.693 20.8812 17.7773C21.5965 18.693 22.8114 19.2974 24.0731 19.2974C24.9817 19.2974 25.8547 18.9769 26.5324 18.3949C26.7451 18.2117 26.7695 17.8902 26.5863 17.6776C26.4042 17.4639 26.0837 17.4405 25.869 17.6226C25.3765 18.0469 24.7385 18.2799 24.0731 18.2799C22.8847 18.2799 21.7176 17.5483 21.3584 16.5776C21.2109 16.1778 20.5515 16.1778 20.404 16.5776C20.0448 17.5483 18.8788 18.2799 17.6903 18.2799C16.5019 18.2799 15.3348 17.5483 14.9756 16.5776C14.8281 16.1778 14.1688 16.1778 14.0212 16.5776C13.662 17.5483 12.495 18.2799 11.3065 18.2799C10.1181 18.2799 8.95203 17.5483 8.59285 16.5776C8.44531 16.1778 7.78597 16.1778 7.63844 16.5776C7.27926 17.5483 6.11219 18.2799 4.92375 18.2799C4.25932 18.2799 3.62135 18.0469 3.12786 17.6226C2.91418 17.4395 2.59367 17.4639 2.41052 17.6776C2.22635 17.8902 2.25179 18.2117 2.46445 18.3949Z" fill="#915A17"/>
</svg>
