<svg width="16" height="14" viewBox="0 0 16 14" fill="none" xmlns="http://www.w3.org/2000/svg">
<path d="M12.9985 4.57031H8.81569L9.40267 1.52508C9.418 1.21538 9.418 1.0529 9.40267 1.03766C9.28167 0.631632 9.00068 0.311563 8.6117 0.136896C8.21771 -0.0386847 7.76372 -0.046001 7.33074 0.118606C7.07675 0.214627 6.82876 0.454222 6.65176 0.769719L4.45584 4.5694H2.99989C1.34595 4.5694 0 5.80029 0 7.31285V10.9708C0 12.4833 1.34595 13.7142 2.99989 13.7142H11.3786C13.2785 13.7142 14.9285 12.4769 15.3015 10.7733L15.9404 7.85057C16.1174 7.04125 15.8904 6.21181 15.3185 5.5735C14.7465 4.93519 13.9015 4.57031 12.9985 4.57031ZM0.999965 10.9717V7.31377C0.999965 6.30509 1.89693 5.4848 2.99989 5.4848H3.99986V12.8007H2.99989C1.89693 12.8007 0.999965 11.9804 0.999965 10.9717ZM14.9595 7.67224L14.3205 10.5949C14.0405 11.8725 12.8035 12.8007 11.3786 12.8007H4.99982V5.33757C5.14082 5.25435 5.25881 5.13821 5.33981 4.99738L7.53973 1.19221C7.63373 1.02394 7.72173 0.962675 7.71673 0.962675C7.87972 0.90049 8.04072 0.899576 8.17171 0.958103C8.27171 1.00291 8.3507 1.08156 8.4187 1.22422L7.83272 4.41028C7.78072 4.67731 7.85972 4.94891 8.05072 5.15833C8.24171 5.36591 8.5207 5.4848 8.81669 5.4848H12.9995C13.6015 5.4848 14.1645 5.72897 14.5455 6.1542C14.9275 6.57944 15.0775 7.1327 14.9595 7.67224Z" fill="#DAA520"/>
</svg>
