<svg width="12" height="14" viewBox="0 0 12 14" fill="none" xmlns="http://www.w3.org/2000/svg">
<g clip-path="url(#clip0_547_57)">
<path d="M9.74937 3.99904H6.61208L7.05234 1.33445C7.06384 1.06346 7.06384 0.921294 7.05234 0.907958C6.96159 0.55268 6.75084 0.272618 6.45908 0.119785C6.16358 -0.0338492 5.82307 -0.040251 5.49832 0.103781C5.30782 0.187799 5.12182 0.397445 4.98906 0.673506L3.34204 3.99824H2.25003C1.00951 3.99824 0 5.07528 0 6.39877V9.59947C0 10.923 1.00951 12 2.25003 12H8.53436C9.95938 12 11.1969 10.9174 11.4766 9.42663L11.9559 6.86927C12.0887 6.16111 11.9184 5.43535 11.4894 4.87683C11.0604 4.31831 10.4266 3.99904 9.74937 3.99904ZM0.75001 9.60027V6.39957C0.75001 5.51697 1.42277 4.79921 2.25003 4.79921H3.00004V11.2006H2.25003C1.42277 11.2006 0.75001 10.4829 0.75001 9.60027ZM11.2201 6.71324L10.7409 9.2706C10.5309 10.3884 9.60312 11.2006 8.53436 11.2006H3.75005V4.67039C3.8558 4.59757 3.9443 4.49595 4.00505 4.37272L5.65507 1.04319C5.72557 0.895955 5.79157 0.842344 5.78782 0.842344C5.91008 0.787932 6.03083 0.787131 6.12908 0.838343C6.20408 0.877551 6.26333 0.946366 6.31433 1.07119L5.87482 3.85901C5.83582 4.09266 5.89508 4.33031 6.03833 4.51355C6.18158 4.69519 6.39083 4.79921 6.61283 4.79921H9.75012C10.2016 4.79921 10.6239 5.01286 10.9096 5.38494C11.1961 5.75703 11.3086 6.24113 11.2201 6.71324Z" fill="#915A17"/>
</g>
<path d="M-9.53674e-07 6.86076C-9.53674e-07 10.0976 4.84184 13.971 5.88759 13.9998C6.93333 14.0287 12 10.0976 12 6.86076C12 3.62395 9.31371 1 6 1C2.68629 1 -9.53674e-07 3.62395 -9.53674e-07 6.86076Z" fill="#DAA520" fill-opacity="0.2"/>
<defs>
<clipPath id="clip0_547_57">
<rect width="12" height="12" fill="white"/>
</clipPath>
</defs>
</svg>
