<svg width="16" height="16" viewBox="0 0 16 16" fill="none" xmlns="http://www.w3.org/2000/svg">
<path d="M11.1698 7.07667L9.58646 4.56933C9.2698 4.20733 8.81313 4 8.33246 4H6.2538L3.1418 5.556L2.3418 8.92267L2.99046 9.07667L3.71846 6.01267L6.31513 4.71467L5.38513 8.56333C5.2118 9.28133 5.53913 10.0387 6.1818 10.404L9.33246 12.194V16H9.99913V11.806L8.13646 10.748L9.4898 5.65933L10.7045 7.58933L13.4545 8.964L13.7525 8.36733L11.1691 7.07533L11.1698 7.07667ZM7.5658 10.4233L6.5118 9.82467C6.1258 9.60533 5.92913 9.15133 6.0338 8.72L7.01313 4.66667H8.3338C8.5978 4.66667 8.8498 4.77133 9.01246 4.92333L7.56646 10.424L7.5658 10.4233ZM8.33313 3.33333C9.25246 3.33333 9.9998 2.58533 9.9998 1.66667C9.9998 0.748 9.25246 0 8.33313 0C7.4138 0 6.66646 0.748 6.66646 1.66667C6.66646 2.58533 7.41446 3.33333 8.33313 3.33333ZM8.33313 0.666667C8.88446 0.666667 9.33313 1.11533 9.33313 1.66667C9.33313 2.218 8.88446 2.66667 8.33313 2.66667C7.7818 2.66667 7.33313 2.218 7.33313 1.66667C7.33313 1.11533 7.7818 0.666667 8.33313 0.666667ZM5.86246 11.3993L6.33313 11.6667L5.95713 13.166L4.6158 16H3.88446L5.34246 12.8933L5.74313 11.328C5.78313 11.3527 5.82313 11.3767 5.8638 11.3993H5.86246Z" fill="#915A17"/>
</svg>
